<svg width="394" height="352" viewBox="0 0 394 352" fill="none" xmlns="http://www.w3.org/2000/svg">
<path d="M196.91 351.971C305.386 351.971 393.323 273.179 393.323 175.985C393.323 78.7914 305.386 0 196.91 0C88.434 0 0.490441 79.4934 0.490049 175.985C0.961909 240.48 35.9016 275.977 40.1505 282.477C44.3996 288.976 33.0679 292.976 8.04412 320.973C7.19203 321.876 6.44279 322.644 5.78234 323.321C2.78315 326.394 1.61494 327.592 0.961909 330.973C-1.05842 335.979 2.14874 343.799 4.54941 346.945C5.28822 347.913 5.90596 348.723 6.19924 349.33C6.60461 349.539 6.97048 349.732 7.30809 349.91C8.27372 350.419 9.00821 350.806 9.77459 351.099C12.21 352.033 14.9675 352.024 26.4882 351.989C29.1297 351.98 32.2367 351.971 35.9009 351.971C64.6894 351.104 124.942 350.334 196.91 351.971Z" fill="#006239"/>
<rect x="84" y="123" width="224" height="32" rx="16" fill="#D9D9D9"/>
<rect x="84" y="187" width="161" height="32" rx="16" fill="#D9D9D9"/>
</svg>
